<?xml version="1.0" encoding="UTF-8" standalone="no"?>
<svg
   xmlns:dc="http://purl.org/dc/elements/1.1/"
   xmlns:cc="http://creativecommons.org/ns#"
   xmlns:rdf="http://www.w3.org/1999/02/22-rdf-syntax-ns#"
   xmlns:svg="http://www.w3.org/2000/svg"
   xmlns="http://www.w3.org/2000/svg"
   xmlns:sodipodi="http://sodipodi.sourceforge.net/DTD/sodipodi-0.dtd"
   xmlns:inkscape="http://www.inkscape.org/namespaces/inkscape"
   version="1.1"
   id="svg901"
   width="210"
   height="220.92638"
   viewBox="0 0 210 220.92638"
   sodipodi:docname="logo.svg"
   inkscape:version="1.0.1 (3bc2e813f5, 2020-09-07)">
  <metadata
     id="metadata907">
    <rdf:RDF>
      <cc:Work
         rdf:about="">
        <dc:format>image/svg+xml</dc:format>
        <dc:type
           rdf:resource="http://purl.org/dc/dcmitype/StillImage" />
        <dc:title></dc:title>
      </cc:Work>
    </rdf:RDF>
  </metadata>
  <defs
     id="defs905" />
  <sodipodi:namedview
     pagecolor="#ffffff"
     bordercolor="#666666"
     borderopacity="1"
     objecttolerance="10"
     gridtolerance="10"
     guidetolerance="10"
     inkscape:pageopacity="0"
     inkscape:pageshadow="2"
     inkscape:window-width="1920"
     inkscape:window-height="1016"
     id="namedview903"
     showgrid="false"
     inkscape:zoom="1.28"
     inkscape:cx="391.96047"
     inkscape:cy="131.90737"
     inkscape:window-x="0"
     inkscape:window-y="27"
     inkscape:window-maximized="1"
     inkscape:current-layer="g909"
     scale-x="1"
     fit-margin-top="5"
     fit-margin-left="5"
     fit-margin-right="5"
     fit-margin-bottom="5" />
  <g
     inkscape:groupmode="layer"
     inkscape:label="Image"
     id="g909"
     transform="translate(-14.499808,-14.625926)">
    <path
       id="path1368"
       style="fill:#f5040d;fill-opacity:1;stroke-width:1"
       d="m 135.27612,90.728967 c -1.0974,-0.01384 -2.19383,0.08329 -3.28627,0.292498 -2.93881,0.562797 -5.04673,1.422153 -8.31997,3.391551 -0.76113,0.457947 -3.16899,2.28219 -3.94105,2.985801 -0.50976,0.464558 -2.50285,2.337703 -3.19616,3.003743 -0.47245,0.45388 -0.90886,0.82448 -0.96981,0.82366 -0.10098,-0.001 -0.30277,-0.16917 -1.38692,-1.15444 -0.19652,-0.178588 -0.79372,-0.69304 -1.32712,-1.143276 -4.62147,-3.900942 -9.08625,-6.110081 -13.524926,-6.691783 -1.090886,-0.142964 -4.426179,-0.07522 -5.258798,0.106871 -1.745161,0.381654 -3.927177,1.133565 -5.002189,1.723689 -0.98591,0.54121 -1.457659,0.817696 -2.051878,1.202097 -2.130167,1.378 -4.122108,3.239242 -6.051157,5.654382 -0.06828,0.0855 -0.280064,0.38409 -0.470749,0.66355 -0.190696,0.27947 -0.3839,0.52342 -0.429277,0.54213 -0.04538,0.0187 -0.08255,0.0827 -0.08255,0.14216 0,0.0594 -0.177223,0.3886 -0.393787,0.73155 -0.497085,0.78716 -1.34437,2.47704 -1.643337,3.2777 -0.12579,0.33688 -0.268129,0.70439 -0.316425,0.81669 -0.352032,0.8186 -0.84287,2.96442 -1.025042,4.48139 -0.133599,1.11247 -0.06888,4.93906 0.102883,6.08445 0.418357,2.78976 0.978866,4.93803 2.050682,7.86059 0.175026,0.47725 0.357422,0.98257 0.405351,1.12294 0.08467,0.24798 0.620625,1.48238 1.165609,2.68452 1.807546,3.98708 4.673332,8.81661 8.372206,14.10894 0.528782,0.75658 1.907408,2.60279 2.66778,3.57259 2.736677,3.49047 2.394072,3.07277 5.189611,6.32671 0.443245,0.51594 2.853114,3.23665 3.176214,3.58595 1.295709,1.40075 2.197629,2.37458 2.400809,2.59201 4.33849,4.64273 6.83664,7.11552 9.69513,9.59684 0.35575,0.30881 0.69728,0.60741 0.75886,0.66356 0.68444,0.62412 3.94063,3.11782 5.36926,4.11193 0.25266,0.17581 0.49211,0.32194 0.53196,0.32439 0.10336,0.007 0.79878,-0.76247 2.07381,-2.29253 0.60824,-0.72991 1.45656,-1.74056 1.885,-2.24588 0.42844,-0.50532 1.55031,-1.83754 2.49311,-2.96048 0.9428,-1.12294 1.81319,-2.15656 1.93424,-2.29692 0.12106,-0.14037 0.81426,-0.96726 1.54045,-1.83754 0.72621,-0.87028 1.36897,-1.63486 1.4284,-1.69917 0.13708,-0.14836 0.61439,-0.71426 1.79587,-2.12904 0.51577,-0.61761 1.03607,-1.23852 1.15624,-1.37995 0.12018,-0.14144 0.56125,-0.66973 0.97998,-1.17398 0.41872,-0.50426 0.7878,-0.93994 0.82028,-0.96802 0.0325,-0.0281 0.35604,-0.41802 0.71898,-0.86653 0.36292,-0.44851 0.84352,-1.02767 1.06811,-1.28703 0.22458,-0.25936 0.47725,-0.5595 0.56147,-0.66715 0.27969,-0.35748 1.67474,-2.02749 1.73704,-2.07939 0.28112,-0.23414 2.83324,-3.56256 4.46306,-5.82067 0.45124,-0.62521 2.58628,-3.83276 2.8867,-4.33683 0.13384,-0.22459 0.26911,-0.43132 0.30068,-0.45939 0.0316,-0.0281 0.14791,-0.22331 0.2584,-0.43386 0.11049,-0.21055 0.23636,-0.38282 0.27973,-0.38282 0.0434,0 0.0788,-0.0474 0.0788,-0.10548 0,-0.058 0.27445,-0.5598 0.60992,-1.11517 0.65228,-1.07984 0.67709,-1.12271 1.76976,-3.06694 3.50634,-6.23902 5.76174,-12.53436 6.51033,-18.17122 0.21332,-1.60629 0.16455,-4.80094 -0.0993,-6.50636 -0.52544,-3.39645 -1.5266,-6.07955 -3.3431,-8.95959 -0.38955,-0.61762 -0.79839,-1.232934 -0.9086,-1.367391 -1.69835,-2.071999 -2.98026,-3.345303 -4.54121,-4.510902 -3.81501,-2.848753 -7.74773,-4.315714 -11.66706,-4.36515 z m 2.94094,3.404111 c 1.96454,2.05e-4 2.5527,0.08189 3.62404,0.503848 1.43226,0.564111 1.86497,0.76049 2.45005,1.111775 2.09898,1.260221 4.30963,3.786269 5.17307,5.911189 0.29336,0.72195 0.35894,1.49296 0.14853,1.74682 -0.21354,0.25763 -0.64669,0.20369 -1.35841,-0.16908 -0.53181,-0.27854 -2.4528,-1.59626 -2.63608,-1.80823 -0.0281,-0.0325 -0.28009,-0.21751 -0.56007,-0.41113 -0.27999,-0.19363 -0.56885,-0.40792 -0.64182,-0.47614 -0.073,-0.0682 -0.26866,-0.20437 -0.43506,-0.30266 -0.1664,-0.0983 -0.30267,-0.21477 -0.30267,-0.258808 0,-0.04404 -0.065,-0.08015 -0.14456,-0.08015 -0.0795,0 -0.15992,-0.03553 -0.17865,-0.07916 -0.0526,-0.122625 -2.06485,-1.414707 -3.30083,-2.11947 -0.77634,-0.442676 -1.98773,-1.056835 -2.50109,-1.268094 -0.77182,-0.317622 -2.38764,-1.099085 -2.59022,-1.25274 -0.34966,-0.265227 -0.12896,-0.549726 0.62986,-0.811899 0.62209,-0.214932 0.86072,-0.236277 2.62391,-0.236073 z" />
    <path
       id="path913-6"
       style="fill:#000000;stroke-width:1"
       d="m 41.481304,154.93675 c -0.522668,-0.006 -0.861838,0.17952 -1.149459,0.56605 -0.299468,0.40245 -0.317096,0.94998 -0.066,2.0453 0.374031,1.6316 1.110357,4.63299 1.284842,5.23707 0.08919,0.30881 0.24492,0.86007 0.345934,1.22503 0.647548,2.33972 2.639883,7.92613 3.466919,9.72065 0.110752,0.24032 0.29911,0.68951 0.418509,0.99832 1.007288,2.60523 5.833719,13.17593 8.133541,17.81392 1.436241,2.89644 3.475605,6.623 4.999996,9.13665 0.357524,0.58954 0.683319,1.12716 0.72397,1.19451 2.137241,3.5413 3.332983,5.01339 5.486496,6.75439 0.950467,0.76841 2.066895,1.37345 4.693738,2.54337 1.708575,0.76096 2.71625,1.21855 3.981334,1.80803 1.486406,0.69261 3.542856,1.62956 5.869915,2.67456 1.431749,0.64295 2.786934,1.25315 3.011522,1.35582 0.224588,0.10268 1.281173,0.56387 2.347966,1.02504 1.066793,0.46117 2.284163,0.9891 2.705265,1.17299 1.873902,0.81831 4.438218,1.8895 6.584514,2.75053 0.786058,0.31534 1.521073,0.61584 1.633367,0.66793 0.550803,0.25553 6.679647,2.5357 9.618967,3.57858 1.27875,0.4537 3.01412,1.07996 3.85632,1.39171 3.19659,1.18323 4.45372,1.56733 5.95804,1.82059 1.24129,0.20899 3.4102,0.17419 6.39809,-0.10248 1.5123,-0.14003 3.1408,-0.3051 3.61885,-0.36687 0.84578,-0.10928 6.23091,-1.00079 10.97559,-1.81701 1.29138,-0.22215 3.17485,-0.5459 4.1855,-0.71937 1.01065,-0.17348 2.22802,-0.38697 2.70527,-0.47455 1.69775,-0.31152 2.41455,-0.43958 3.62403,-0.6472 1.13852,-0.19543 5.99579,-1.05109 7.86058,-1.38474 11.58023,-2.07194 20.07422,-4.23877 27.61412,-7.04449 3.2554,-1.21138 10.71541,-4.24994 14.03676,-5.71739 0.16844,-0.0744 1.25568,-0.53082 2.41595,-1.01427 1.16028,-0.48344 2.32078,-0.99714 2.57906,-1.14149 0.54206,-0.30297 1.32246,-1.05074 1.54425,-1.47963 0.19368,-0.37456 0.18284,-0.37496 -1.29621,-0.0411 -1.02773,0.232 -3.25977,1.05724 -6.62121,2.44786 -0.58954,0.24391 -1.43823,0.5883 -1.88598,0.76544 -0.44777,0.17714 -0.9531,0.38568 -1.12295,0.46338 -0.16986,0.0777 -0.95198,0.40164 -1.73804,0.71998 -0.78606,0.31832 -2.09531,0.85263 -2.90944,1.18714 -4.50558,1.85127 -9.08297,3.42842 -14.85343,5.11783 -1.55262,0.45455 -6.94754,1.80314 -8.62623,2.15636 -2.37391,0.4995 -6.08466,1.21742 -8.67726,1.67883 -1.71637,0.30546 -11.7327,1.95323 -15.61908,2.56948 -0.70184,0.11128 -1.81585,0.29333 -2.47557,0.40455 -2.03706,0.34343 -3.67091,0.61473 -4.36416,0.72456 -0.36495,0.0578 -0.89325,0.14697 -1.17398,0.19819 -0.28074,0.0512 -1.24545,0.20831 -2.1438,0.34893 -4.1487,0.64941 -7.50107,1.18945 -8.01371,1.29103 -0.90042,0.1784 -3.87468,0.23353 -5.09111,0.0943 -1.34974,-0.15447 -3.22725,-0.67896 -4.73322,-1.32232 -0.6324,-0.27016 -2.02269,-0.79949 -3.08948,-1.17618 -1.06679,-0.37669 -2.99621,-1.06908 -4.28759,-1.53865 -1.29138,-0.46956 -3.42752,-1.24556 -4.746978,-1.7243 -2.448142,-0.88827 -2.612755,-0.94953 -4.510902,-1.67902 -2.39173,-0.91918 -3.000833,-1.15666 -3.196551,-1.24617 -0.112294,-0.0513 -0.663556,-0.27179 -1.225026,-0.48988 -2.893858,-1.12405 -7.777962,-3.25931 -11.177164,-4.88655 -2.963388,-1.41861 -5.964172,-2.61406 -8.780547,-3.49822 -2.824195,-0.88662 -3.412058,-1.14741 -4.60561,-2.0431 -1.309502,-0.98269 -2.250221,-2.16075 -4.214417,-5.27755 -1.05293,-1.67078 -1.767327,-2.9233 -3.045815,-5.34014 -0.311861,-0.58954 -0.749271,-1.41643 -0.972205,-1.83754 -0.222934,-0.4211 -0.785132,-1.50065 -1.249151,-2.39901 -0.46402,-0.89835 -1.045724,-2.01329 -1.292618,-2.47776 -0.559786,-1.05308 -4.383661,-8.70106 -4.835103,-9.67041 -0.183029,-0.39303 -0.515647,-1.10507 -0.739123,-1.58232 -0.563981,-1.20438 -1.708935,-3.77706 -1.708935,-3.83998 0,-0.0285 -0.111558,-0.29012 -0.248036,-0.58141 -0.865675,-1.84764 -2.99353,-7.74328 -3.168637,-8.77935 -0.0836,-0.49464 0.08185,-1.00922 0.52598,-1.63516 1.514121,-2.13395 1.677221,-4.16476 0.554291,-6.90274 -0.171463,-0.41808 -0.289049,-0.78283 -0.261394,-0.81049 0.09574,-0.0957 0.922668,0.3746 1.735054,0.98676 1.163775,0.87692 4.161522,4.02741 5.800729,6.09642 0.266892,0.33688 0.540668,0.68142 0.608524,0.76564 1.187959,1.47464 3.068887,4.25836 4.104156,6.07408 1.340189,2.35052 2.667786,5.3604 4.029984,9.13666 0.807608,2.23884 1.110539,2.83803 1.555009,3.07591 0.184825,0.0989 0.18989,0.0624 0.125015,-0.88846 -0.05845,-0.85689 -0.04678,-0.98383 0.08534,-0.93312 0.245709,0.0943 2.995046,2.07273 4.052315,2.91601 0.984104,0.78493 2.858393,2.53775 2.858393,2.67317 0,0.0407 -0.654623,0.51349 -1.454718,1.05056 -1.639554,1.10057 -2.172249,1.56216 -2.381861,2.06384 -0.293649,0.70279 -0.145313,1.25149 0.61012,2.25645 1.070468,1.42403 2.341568,2.48478 3.766395,3.14292 0.433394,0.20018 0.81297,0.36388 0.843402,0.36388 0.03043,0 0.386291,0.15457 0.790764,0.34333 1.31186,0.61225 4.580884,1.87193 5.941694,2.28956 2.206036,0.67701 5.442085,1.6339 6.635556,1.96215 0.449176,0.12354 0.93153,0.26229 1.071898,0.30845 0.140367,0.0462 1.105075,0.32181 2.143795,0.61251 1.038719,0.29071 2.53172,0.71335 3.317778,0.93911 0.786058,0.22576 1.819673,0.51387 2.296923,0.64023 0.47725,0.12635 1.717588,0.47042 2.756308,0.76464 8.869068,2.51221 14.218108,3.11591 20.366058,2.29832 1.06679,-0.14188 3.01917,-0.39689 4.33863,-0.56666 4.42278,-0.56906 8.92559,-1.23347 9.69812,-1.43099 1.47354,-0.37675 2.88876,-0.89208 3.28408,-1.19591 0.27089,-0.20819 0.35225,-0.32224 0.25621,-0.3591 -0.19256,-0.0739 -2.27535,0.0993 -3.33612,0.27735 -0.47725,0.0801 -1.64868,0.23952 -2.60318,0.3545 -0.9545,0.11497 -2.72249,0.32768 -3.92889,0.47255 -1.20641,0.14485 -3.13582,0.39981 -4.28759,0.56665 -4.53428,0.6568 -4.43363,0.64872 -8.16824,0.6524 -5.12476,0.005 -6.57399,-0.22182 -13.373197,-2.09415 -2.273955,-0.62618 -4.524939,-1.24421 -5.002189,-1.37337 -0.47725,-0.12915 -1.304142,-0.35941 -1.837539,-0.51163 -2.198074,-0.62729 -4.14808,-1.17753 -6.125128,-1.72828 -1.151014,-0.32062 -2.712922,-0.76046 -3.470907,-0.97738 -0.757984,-0.21691 -1.906446,-0.54039 -2.552137,-0.71879 -1.083872,-0.29943 -1.804186,-0.57393 -1.719303,-0.65518 0.01926,-0.0184 0.437884,-0.1957 0.930335,-0.39379 0.862377,-0.34689 1.768136,-0.91486 2.141801,-1.34326 0.647812,-0.74268 1.097219,-2.46766 1.097219,-4.21122 0,-0.9867 -0.256349,-2.10834 -0.983769,-4.30414 -0.137744,-0.41577 -0.21391,-0.78864 -0.169279,-0.82864 0.1067,-0.0957 2.566319,-0.47017 4.36874,-0.66516 0.786059,-0.085 2.095305,-0.23102 2.909437,-0.3244 2.006725,-0.23014 5.800323,-0.22653 8.166838,0.008 1.634103,0.16179 4.142078,0.45654 9.647078,1.13371 5.41425,0.66602 7.42304,0.61152 11.35462,-0.30786 3.12085,-0.7298 6.55415,-1.61812 13.19694,-3.41428 8.33811,-2.25456 10.83989,-2.69892 20.67231,-3.67188 6.42135,-0.63542 8.85626,-0.71149 12.86277,-0.40196 2.5297,0.19542 6.01988,0.7828 8.07991,1.35981 0.27245,0.0763 0.76376,0.21336 1.09183,0.30446 1.39054,0.38609 3.78937,1.26211 5.42648,1.98169 0.50532,0.22211 1.09342,0.45195 1.30678,0.51083 0.3644,0.10055 0.39382,0.0916 0.4849,-0.14795 0.14437,-0.37969 0.11753,-0.88168 -0.0608,-1.1363 -0.22994,-0.32828 -0.85178,-0.66275 -2.29234,-1.23319 -4.098,-1.62274 -8.07764,-2.60439 -12.55651,-3.09746 -1.54835,-0.17049 -8.0014,-0.16989 -10.20855,0.001 -2.16977,0.16798 -6.19317,0.56742 -8.98352,0.89166 -6.48435,0.75347 -10.59839,1.56027 -15.8743,3.11321 -1.93317,0.56901 -3.06145,0.88543 -5.76783,1.61782 -1.2633,0.34186 -2.52661,0.6903 -2.80735,0.77441 -0.28073,0.0841 -1.29138,0.3609 -2.24588,0.6151 -3.50653,0.93386 -5.29424,1.19835 -8.11579,1.2005 -1.88953,0.001 -2.32263,-0.0404 -8.52414,-0.82546 -7.902109,-1.00028 -8.317691,-1.03767 -11.518112,-1.03899 -2.741475,-0.001 -4.356843,0.10608 -6.193718,0.41152 -0.645691,0.10737 -2.322445,0.36101 -3.72612,0.56348 -1.403675,0.20246 -2.804798,0.4076 -3.113607,0.45599 -2.167356,0.3396 -4.303722,0.86759 -5.839608,1.44315 -0.630204,0.23617 -1.148645,0.37625 -1.225026,0.33098 -0.184407,-0.10931 -2.390064,-1.65394 -2.898072,-2.02955 -0.229763,-0.16988 -0.775861,-0.5617 -1.21346,-0.87051 -1.322303,-0.93314 -2.140354,-1.51654 -2.248075,-1.60347 -0.05615,-0.0453 -0.239901,-0.16917 -0.408342,-0.27515 -0.73134,-0.4601 -1.804246,-1.32276 -2.056663,-1.6537 -0.173994,-0.22812 -0.450516,-0.94384 -0.757865,-1.96096 -0.820083,-2.71387 -0.999221,-3.17112 -2.103918,-5.37185 -1.273098,-2.53621 -2.946845,-5.20408 -4.689352,-7.47437 -0.523535,-0.68213 -1.010607,-1.3023 -1.082465,-1.37816 -0.07186,-0.0759 -0.383459,-0.43636 -0.692268,-0.80112 -0.308808,-0.36477 -0.722254,-0.84294 -0.918769,-1.06253 -0.196514,-0.21958 -0.463723,-0.5182 -0.59377,-0.66376 -0.38328,-0.42898 -2.40528,-2.4714 -2.942933,-2.97264 -1.716129,-1.5999 -3.62327,-2.71781 -5.985559,-3.50839 -0.690838,-0.2312 -1.208305,-0.35151 -1.614825,-0.3561 z m 0.205168,2.44925 c 0.348128,0.0117 1.797182,1.47969 2.221356,2.28556 0.78173,1.48515 0.842161,3.06712 0.183036,4.79303 -0.27999,0.73311 -0.258768,0.76031 -0.916576,-1.17797 -0.487754,-1.43718 -1.630027,-5.7949 -1.542049,-5.88288 0.01279,-0.0128 0.03102,-0.0185 0.05423,-0.0177 z m 38.209877,30.24502 c 0.04009,0 0.06706,0.003 0.07916,0.0108 0.150229,0.0928 0.709179,1.63794 0.871117,2.40779 0.298712,1.42001 0.137315,3.33698 -0.389201,4.62196 -0.265453,0.64785 -0.643651,1.11042 -1.101606,1.34724 -0.638729,0.3303 -2.499054,0.25455 -4.113128,-0.16748 -1.066068,-0.27874 -2.889815,-1.14842 -3.738482,-1.78271 -0.789509,-0.59007 -2.144887,-1.87469 -2.140804,-2.02895 0.0044,-0.16717 0.801792,-0.97829 1.427402,-1.45192 0.812315,-0.61498 1.972575,-1.17638 3.367624,-1.62958 1.553362,-0.50464 5.136653,-1.32507 5.737922,-1.32711 z" />
    <g
       id="g1558"
       transform="matrix(0.10208548,0,0,0.10208548,17.509161,17.622404)"
       style="stroke-width:9.79571">
      <path
         id="path1436"
         style="fill:#000000;stroke-width:9.79571"
         d="m 1193.1152,34.939453 c -1.5916,0.04821 -3.2753,0.541328 -5.08,1.474609 -6.2006,3.20649 -19.4073,24.387211 -35.7051,57.263672 -9.7157,19.598666 -10.764,21.294926 -13.168,21.294926 -3.4691,0 -7.2422,3.66856 -7.2422,7.04101 0,1.47995 0.8902,3.82003 1.9766,5.20117 l 1.9746,2.51172 -3.0625,8.37305 c -5.3082,14.51104 -3.7633,20.87305 5.0684,20.87305 4.9658,0 6.0366,-1.47725 9.9824,-13.76368 1.8129,-5.64496 3.6496,-10.48084 4.082,-10.74804 0.9611,-0.59398 35.0441,7.46348 36.5664,8.64453 0.5981,0.46401 1.16,2.77984 1.25,5.14648 0.3851,10.18075 4.8601,20.8477 9.5371,22.73633 8.5642,3.45833 14.6451,-4.27766 9.7442,-12.39648 -1.0352,-1.71491 -2.1814,-5.20124 -2.545,-7.74805 l -0.6601,-4.63086 3.4062,-0.63867 c 5.5117,-1.034 8.317,-5.47534 6.5899,-10.42969 -1.0634,-3.05045 -3.7804,-4.89721 -7.9102,-5.37891 l -2.5,-0.29296 0.3457,-37.000004 c 0.4009,-42.879581 -0.1591,-48.568312 -5.3242,-54.044922 -2.2758,-2.413112 -4.6735,-3.568632 -7.3262,-3.488281 z m -4.0058,27.033203 c 0.9722,0 1.0783,34.731591 0.1582,51.843754 -0.6191,11.51413 -0.7645,12.15093 -2.75,12.05273 -4.2021,-0.20793 -27.5977,-6.30434 -27.5977,-7.19141 0,-3.15363 28.5106,-56.705074 30.1895,-56.705074 z" />
      <path
         id="path1424"
         style="fill:#000000;stroke-width:9.79571"
         d="m 546.72852,128.21289 c -3.21594,-0.0837 -6.35433,0.86116 -8.20508,2.71094 -1.7505,1.74965 -2.16101,3.57246 -2.44532,10.86328 -0.4904,12.57993 2.12964,27.77162 11.52344,66.82422 l 3.64063,15.13672 -2.16016,2.74804 c -1.1887,1.51115 -2.16211,4.01982 -2.16211,5.57422 0,3.32111 3.40761,6.90235 6.56641,6.90235 1.7753,0 2.62306,1.18238 4.47656,6.25 2.8327,7.74488 5.71132,13.70545 7.72852,16 2.3715,2.69763 8.75313,2.31715 11.77343,-0.70313 2.4644,-2.46434 3.38802,-7.85263 1.54102,-8.99414 -1.0429,-0.64459 -7.08594,-16.03299 -7.08594,-18.04492 0,-1.10525 31.7912,-17.50781 33.9336,-17.50781 0.3845,0 2.01911,1.46785 3.63281,3.25976 9.8182,10.90249 20.30007,14.6023 25.79687,9.10547 4.4676,-4.46757 2.73878,-11.52508 -3.14062,-12.81641 -1.5265,-0.33527 -4.78775,-2.35055 -7.24805,-4.47851 l -4.47461,-3.86914 2.25,-2.41406 c 2.8872,-3.09895 2.9579,-8.07922 0.1543,-10.88282 -2.1018,-2.10177 -4.6084,-2.20106 -11.9043,-0.47265 -2.2564,0.53455 -3.5719,-0.78395 -13.5,-13.54102 -6.05,-7.77387 -11.45,-14.64272 -12,-15.26367 -0.55,-0.62095 -4.44695,-5.40281 -8.66015,-10.62695 -10.12,-12.5484 -19.85493,-22.30445 -24.41993,-24.47071 -1.72391,-0.81804 -3.68176,-1.23884 -5.61132,-1.28906 z m 7.0371,25.30859 c 0.87686,-0.0238 2.79072,2.00295 6.1543,6.23829 2.475,3.11648 5.2452,6.57624 6.1543,7.68945 0.9091,1.1132 4.5091,5.6234 8,10.02148 3.4909,4.39807 7.09095,8.89807 8.00195,10 0.9109,1.10192 4.16186,5.15196 7.22266,9.00196 l 5.56445,7 -13.2207,6.69922 c -13.9838,7.08402 -14.3444,7.22697 -15.0625,6.05078 -1.6616,-2.72161 -10.72208,-43.30849 -13.17188,-59.00196 -0.37808,-2.42194 -0.32457,-3.68068 0.35742,-3.69922 z" />
      <path
         id="path1402"
         style="fill:#000000;stroke-width:9.79571"
         d="m 137.79297,547.1875 c -5.57371,0.005 -8.44447,1.64902 -10.89453,4.59375 -3.8432,4.6192 -3.43926,8.15209 1.83984,16.10547 5.6996,8.58671 33.01373,35.4435 52.95703,52.07031 5.4482,4.54221 6.24893,5.64353 6.08203,8.37305 -0.2934,4.79852 0.91538,7.30573 4.17578,8.65625 2.35351,0.9748 3.59017,0.97254 5.98047,-0.0176 2.7466,-1.13766 3.36889,-0.99522 7.02539,1.62695 2.2064,1.58224 6.36253,4.36361 9.23633,6.17969 4.221,2.66738 5.96054,3.21142 9.05274,2.83399 4.7557,-0.58052 6.59962,-2.9074 6.64062,-8.38086 0.0318,-4.2438 0.0319,-4.24438 -8.60547,-9.81641 -11.6081,-7.48848 -11.91965,-7.82873 -10.21875,-11.22461 1.1173,-2.23062 15.78903,-29.07411 16.39063,-29.98828 0.0994,-0.15105 4.51786,0.25877 9.81836,0.91016 7.5671,0.92997 10.52317,0.91813 13.76367,-0.0527 8.2356,-2.46743 11.21382,-8.85084 6.76562,-14.50586 -2.0749,-2.63769 -2.28045,-2.67982 -9.93945,-2.01172 -4.3011,0.37515 -8.94456,0.3995 -10.31836,0.0547 -2.2278,-0.55915 -2.43563,-1.00809 -1.92383,-4.16211 1.4559,-8.97166 -11.17224,-11.97799 -14.68554,-3.49609 -0.6922,1.67102 -1.83567,3.03711 -2.54297,3.03711 -0.7072,0 -9.54031,-2.5192 -19.62891,-5.59961 -34.88125,-10.65071 -51.68119,-15.19384 -60.9707,-15.18555 z m 12.2168,18.97852 c 1.72547,-0.006 9.87296,2.22856 29.91015,8.17773 6.325,1.87793 15.55,4.60018 20.5,6.05078 4.95,1.4506 9.57038,2.83882 10.26758,3.08399 1.214,0.4269 -5.24337,13.82138 -11.44727,23.74414 -1.2895,2.0625 -2.45143,3.73509 -2.58203,3.71679 -2.5738,-0.36061 -48.5354,-44.19981 -46.9082,-44.74218 0.0596,-0.0199 0.14473,-0.0309 0.25977,-0.0312 z" />
      <path
         id="path1390"
         style="fill:#000000;stroke-width:9.79571"
         d="m 1866.5449,827.25781 c -0.4219,0.004 -0.8368,0.0535 -1.2383,0.1543 -3.1668,0.79481 -5.3867,2.85171 -5.3867,4.99023 0,1.31491 -1.5099,1.57118 -9.25,1.57618 -5.0875,0.003 -10.9244,0.47075 -12.9707,1.03906 -6.6844,1.85642 -8.857,8.42824 -4.4726,13.52539 2.2586,2.6258 2.5617,2.68237 14.75,2.80469 l 12.4433,0.125 1.2539,9 c 0.6896,4.95 1.8432,13.17706 2.5625,18.28125 l 1.3067,9.27929 -7.92,4.22071 c -10.5048,5.59631 -14.7031,10.21702 -14.7031,16.18359 0,3.29843 0.5702,4.98754 2.1895,6.49609 3.5721,3.328 7.3041,2.63324 12.0976,-2.25586 4.9402,-5.03867 10.802,-7.93785 11.545,-5.70898 0.8777,2.63318 5.0822,6.00391 7.4882,6.00391 1.3258,0 3.6269,-0.95576 5.1133,-2.125 2.3046,-1.81278 2.6629,-2.76918 2.4336,-6.49805 -0.1479,-2.40514 0.1584,-4.78431 0.6817,-5.28711 0.5231,-0.5028 13.3261,-5.21998 28.4511,-10.48047 36.858,-12.81926 48.2859,-17.93083 52.5137,-23.49414 2.6551,-3.49381 2.711,-11.10495 0.1016,-13.98828 -3.3504,-3.70216 -13.6309,-6.7316 -36.1153,-10.64453 -8.8795,-1.54529 -45.5244,-5.48242 -51.0332,-5.48242 -2.8103,0 -3.7034,-0.49088 -4.4472,-2.44727 -1.1629,-3.05847 -4.4414,-5.29587 -7.3946,-5.26758 z m 9.3672,24.41992 10.5664,0.6836 c 17.3014,1.11856 50.9089,5.80176 54.2324,7.55664 1.2962,0.68439 -6.6638,3.94561 -24.291,9.95312 -4.95,1.68701 -14.175,4.92603 -20.5,7.19922 -6.325,2.27318 -12.4837,4.35417 -13.6855,4.62305 -2.4535,0.54889 -2.4181,0.66817 -4.3086,-15.2207 -0.589,-4.95 -1.2837,-10.30283 -1.543,-11.89649 z" />
      <path
         id="path1378"
         style="fill:#000000;stroke-width:9.79571"
         d="m 1858.0137,1010.8496 c -2.7658,-0.048 -5.3312,1.6747 -7.0117,4.9981 -4.9869,9.8616 -6.6771,31.1831 -3.6817,46.4609 4.4017,22.4507 20.3672,44.5382 36.3027,50.2226 12.9344,4.6138 25.7725,-2.6732 30.2715,-17.1816 1.173,-3.7823 2.3993,-9.6894 2.7246,-13.1269 0.3253,-3.4375 0.9898,-6.25 1.4786,-6.25 0.4888,0 2.3768,1.4625 4.1953,3.25 10.5658,10.3858 20.0732,17.3552 26.9922,19.7871 6.3652,2.2371 7.7378,2.3412 12.7207,0.957 8.3542,-2.3207 13.65,-11.741 16.0195,-28.4941 1.1835,-8.3676 0.5634,-36.685 -1.0059,-45.9336 -1.3509,-7.9619 -6.9136,-10.8589 -12.4648,-6.4922 -2.3664,1.8613 -2.6348,2.7386 -2.6348,8.6093 v 6.5352 l -11.25,-0.6602 c -33.1233,-1.9447 -56.5746,-4.4293 -76.9199,-8.1503 l -8.6699,-1.586 0.1699,-4.498 c 0.1378,-3.6418 -0.2785,-4.8645 -2.1895,-6.4121 -1.6546,-1.3401 -3.3873,-2.0061 -5.0468,-2.0352 z m 4.4082,29.7891 c 26.1207,4.3323 35.6479,5.6241 53.5,7.2519 11.825,1.0782 27.4625,2.2712 34.75,2.6504 l 13.25,0.6895 -0.01,3.6211 c -0.016,7.1102 -2.0415,21.2075 -3.6113,25.1308 -1.189,2.9716 -2.1623,3.9903 -3.8106,3.9903 -3.2486,0 -12.9514,-7.1423 -25.1308,-18.5 -13.285,-12.3889 -14.9173,-13.4822 -20.0996,-13.4922 -3.4231,-0.01 -4.6202,0.5393 -6.75,3.0703 -2.4452,2.9059 -2.5906,3.6971 -2.6016,14.25 -0.013,11.9598 -1.6606,20.4098 -4.8047,24.6387 v 0 c -3.1424,4.2268 -8.5571,3.9274 -14.6895,-0.8145 -9.2613,-7.1611 -17.712,-22.2833 -20.4824,-36.6523 -1.3078,-6.783 -1.0212,-16.0844 0.4883,-15.834 z" />
      <path
         id="path1372"
         style="fill:#000000;stroke-width:9.79571"
         d="m 145.05859,1108.9688 c -2.12965,0.01 -4.46044,1.2602 -6.92773,3.7539 -4.93,4.9826 -11.292,8.326 -12,6.3066 -0.9755,-2.7822 -5.14464,-6.0566 -7.71094,-6.0566 -1.4516,0 -3.72472,1.1347 -5.16992,2.58 -2.236,2.236 -2.49967,3.1567 -1.98438,6.9161 l 0.59376,4.3378 -8.71876,3.1836 c -4.795697,1.7517 -15.245702,5.4201 -23.220698,8.1504 -33.8567,11.5908 -47.184775,17.9097 -51.171875,24.2578 -2.728,4.3433 -1.895625,10.3087 1.859375,13.3145 2.5857,2.0698 10.794381,5.1936 17.613281,6.7031 12.0168,2.6603 44.782051,6.9836 62.001957,8.1797 9.431,0.6552 9.8574,0.7856 11.25,3.4785 0.7961,1.5394 2.23476,3.2578 3.19726,3.8184 3.7877,2.2061 8.73122,0.5794 10.23242,-3.3692 0.8443,-2.2205 1.4198,-2.3475 12.375,-2.6953 10.5161,-0.3338 11.71136,-0.569 14.06836,-2.7832 1.8518,-1.7397 2.57422,-3.4415 2.57422,-6.0566 0,-3.9613 -2.88846,-7.9836 -5.78906,-8.0606 -0.9411,-0.025 -6.66094,-0.1375 -12.71094,-0.25 l -11,-0.205 -2.19531,-17 c -1.2073,-9.35 -2.21614,-17.675 -2.24414,-18.5 -0.0298,-0.8803 3.01253,-3.0722 7.36523,-5.3067 8.3666,-4.295 12.21237,-7.6695 14.25977,-12.5156 1.5918,-3.7677 1.01569,-6.6606 -1.97461,-9.9277 -1.38119,-1.5091 -2.91587,-2.2588 -4.57227,-2.2539 z m -30.54492,35.4355 c 0.1037,-0.01 0.16872,0 0.18945,0.018 0.7058,0.7058 0.76692,1.095 2.13282,13.5683 0.5732,5.2344 1.3319,10.9719 1.6875,12.75 l 0.64648,3.2325 -5.875,-0.1602 c -6.6626,-0.1815 -7.9457,-0.2991 -25.874998,-2.3848 -17.466996,-2.0318 -33.5,-4.6619 -33.5,-5.4961 0,-0.906 6.833348,-3.5043 35.839844,-13.623 12.549934,-4.3779 23.198454,-7.7706 24.753904,-7.9043 z" />
      <path
         style="fill:#000000;stroke-width:9.79571"
         d="m 914.0947,104.65902 c -2.8883,-3.0744 -2.8263,-7.724459 0.1401,-10.511239 1.8303,-1.71947 3.5561,-2.17998 8.25,-2.20141 3.2646,-0.0149 9.9856,-0.45252 14.9356,-0.97249 21.2071,-2.22768 19.8287,-2.2231 22.3158,-0.0742 3.1716,2.74037 3.2061,7.50632 0.077,10.635389 -3.0538,3.05384 -17.4367,5.42381 -32.9686,5.43246 -9.7656,0.005 -10.7422,-0.17138 -12.75,-2.30855 z"
         id="path1444" />
      <path
         style="fill:#000000;stroke-width:9.79571"
         d="m 1107.6684,152.56871 c -5.0483,-1.83114 -10.1012,-5.81256 -12.6873,-9.99696 -6.2836,-10.16722 -10.0455,-29.19136 -10.0548,-50.848279 0,-7.69696 -0.4108,-13.75 -0.9257,-13.75 -0.506,0 -1.6287,3.0375 -2.4949,6.75 -4.8755,20.894169 -12.1648,43.791289 -16.3155,51.249999 -4.3181,7.75966 -8.0895,11.76573 -12.7532,13.54682 -12.2195,4.66666 -21.0997,-5.01086 -24.9699,-27.21185 -1.1998,-6.8827 -3.8825,-34.937299 -4.791,-50.102619 -0.1407,-2.34721 -0.6705,-4.279441 -1.1776,-4.293861 -0.507,-0.0144 -2.1633,4.831031 -3.6806,10.767651 -7.5862,29.681159 -18.7745,53.714229 -29.8147,64.043859 -4.1953,3.92517 -9.4511,4.41881 -12.8943,1.21104 -3.5172,-3.27679 -2.9013,-7.73489 1.7955,-12.99728 12.1323,-13.593 22.7591,-41.914709 31.5046,-83.96376 4.126,-19.83793 7.7761,-26 15.401,-26 4.5446,0 8.3121,3.4859 10.5148,9.72893 1.3875,3.9328 3.7248,25.58394 5.103,47.271071 1.8109,28.497649 5.7565,53.999999 8.3545,53.999999 3.0948,0 10.1841,-21.62792 20.1883,-61.589469 9.6131,-38.399671 12.0311,-45.676841 16.2036,-48.767141 5.8803,-4.35517 13.6483,-1.25513 15.7421,6.28235 0.563,2.02651 0.9954,17.65022 0.9985,36.08038 0.01,35.348951 1.3953,53.02702 4.9859,63.44619 2.1745,6.31023 5.3408,10.52695 7.944,10.57949 3.7524,0.0757 7.4921,5.46085 6.51,9.37408 -1.3094,5.21686 -6.6208,7.38949 -12.6863,5.18936 z"
         id="path1442" />
      <path
         style="fill:#000000;stroke-width:9.79571"
         d="m 838.4204,159.62327 c -1.65,-0.77954 -3.9998,-2.37531 -5.2217,-3.54616 -3.7885,-3.63005 -8.5518,-22.34204 -10.7816,-42.35364 -0.4391,-3.94122 -1.0788,-5.75 -2.0335,-5.75 -3.6183,0 -4.6167,-8.484999 -1.505,-12.790489 1.8243,-2.5241 1.8908,-3.49644 0.9721,-14.20951 -0.5424,-6.325 -1.7314,-16.225001 -2.6423,-22.000001 -0.9109,-5.775 -1.6516,-11.97545 -1.6459,-13.77877 0.029,-9.35429 12.3373,-15.03094 40.4147,-18.64008 18.992,-2.44129 26.2711,-2.48577 28.8314,-0.17617 1.4233,1.28396 2.1118,3.10795 2.1118,5.59502 0,6.06437 -2.063,7.1013 -17.2445,8.66758 -16.2025,1.67161 -30.0419,4.0074 -34.3102,5.7908 l -3.193,1.33411 1.264,7.35375 c 0.6952,4.04457 1.8408,13.766261 2.5458,21.603761 0.8192,9.10748 1.6867,14.25 2.4041,14.25 1.6667,0 28.9476,-5.56203 37.1108,-7.56617 8.4484,-2.07417 11.842,-1.4579 13.9014,2.52445 3.0575,5.9126 -0.9159,10.33339 -11.792,13.11959 -5.6232,1.440509 -37.6096,7.922129 -39.0954,7.922129 -0.6456,0 2.4209,19.70314 4.3919,28.2195 1.6637,7.18853 2.7145,9.86708 4.0351,10.28624 2.989,0.94864 20.7291,-2.20435 34.482,-6.12855 15.3812,-4.38883 17.8151,-4.51661 21.2178,-1.11391 2.1367,2.13671 2.4343,3.11235 1.8687,6.12691 -0.41,2.18577 -1.5342,4.06501 -2.8796,4.81379 -2.4937,1.3879 -12.6673,4.56577 -26.7069,8.34231 -11.8804,3.19571 -31.7629,4.34155 -36.5,2.10351 z"
         id="path1440" />
      <path
         style="fill:#000000;stroke-width:9.79571"
         d="m 736.0455,187.22347 c -2.3238,-1.93977 -3.2991,-5.48114 -20.661,-75.01994 C 704.9113,70.255671 704.8442,69.910921 706.588,66.959 c 2.1487,-3.6375 7.4567,-5.01417 11.1154,-2.88287 1.5169,0.88365 5.2328,6.911601 10.1079,16.397341 17.7421,34.521329 33.4723,58.751139 46.5904,71.764919 5.715,5.66958 10.4161,8.37216 12.9031,7.41781 4.7855,-1.83637 3.4595,-23.07803 -2.9765,-47.68273 C 780.3991,96.952271 772.23,72.220291 767.6509,61.4824 c -4.2211,-9.89863 -4.5212,-13.41842 -1.3942,-16.35557 3.2258,-3.02996 8.995,-3.33219 11.4954,-0.60221 1.8049,1.97054 3.194,5.24839 9.5133,22.44885 12.6437,34.41426 19.655,63.05123 19.655,80.27914 0,7.56616 -2.2763,16.89577 -5.0846,20.83965 -1.1254,1.58042 -3.9687,4.00023 -6.3186,5.37735 -13.8728,8.12998 -32.0264,-3.39832 -51.8443,-32.92331 -3.8265,-5.70071 -4.7446,-6.58783 -4.7327,-4.57283 0.013,2.26958 3.3076,15.70931 8.8806,36.23162 1.1548,4.25239 2.0996,8.83222 2.0996,10.17742 0,5.38588 -9.3247,8.63926 -13.8749,4.84096 z"
         id="path1434" />
      <path
         style="fill:#000000;stroke-width:9.79571"
         d="m 1285.9204,200.2478 c -4.26,-1.61249 -13.9897,-11.3893 -19.7895,-19.88535 -3.1019,-4.54386 -13.3199,-23.09436 -13.8471,-25.13898 -0.3191,-1.2375 -0.8905,-2.25 -1.2698,-2.25 -0.3792,0 -2.8351,5.28401 -5.4576,11.74224 -6.2072,15.28605 -8.4423,18.25776 -13.7323,18.25776 -4.613,0 -8.9037,-3.45496 -8.9037,-7.16941 0,-1.24317 1.7468,-5.87612 3.8818,-10.29545 6.038,-12.49809 16.0949,-43.80628 24.1032,-75.035139 3.838,-14.96654 5.2034,-17.01926 11.2715,-16.9449 7.7028,0.0944 9.3758,3.60069 6.6957,14.03282 -2.9889,11.63451 -7.0049,26.649879 -8.5167,31.843579 -2.3247,7.98639 -2.455,7.83435 6.3145,7.36914 5.2554,-0.2788 9.1985,-1.1155 12.25,-2.59939 9.9197,-4.82375 17.4202,-15.24541 18.6216,-25.874069 1.5788,-13.96703 -12.8884,-25.71868 -34.4184,-27.95803 -8.4938,-0.88344 -11.4135,-3.173721 -11.0052,-8.632631 0.2228,-2.97729 0.9866,-4.54563 2.9108,-5.97639 2.4033,-1.78701 3.2304,-1.85004 10.5,-0.80021 18.8908,2.72811 32.8422,9.39393 40.199,19.206591 5.3091,7.08148 7.1296,11.78628 7.8449,20.27485 1.7892,21.230989 -13.3258,41.128509 -35.7837,47.105879 -2.9529,0.78596 -7.0565,1.43436 -9.119,1.44089 -2.0625,0.007 -3.75,0.2122 -3.75,0.45705 0,0.24486 2.7362,5.89386 6.0805,12.55335 6.1969,12.34019 14.0023,23.7399 18.7689,27.41193 8.6015,6.62642 10.1337,10.69739 5.6961,15.13499 -2.3697,2.36963 -6.0782,3.04132 -9.5455,1.72888 z"
         id="path1432" />
      <path
         style="fill:#000000;stroke-width:9.79571"
         d="m 648.2988,221.52597 c -1.1366,-0.79613 -2.872,-3.60863 -3.8563,-6.25 -0.9843,-2.64138 -3.8053,-9.9775 -6.2688,-16.3025 -13.7723,-35.35986 -33.2533,-88.65206 -33.2533,-90.96754 0,-2.73153 2.9659,-6.19098 6.3294,-7.38256 4.5349,-1.606549 6.6386,0.34984 16.9096,15.72555 9.378,14.03895 24.8174,35.18195 30.7284,42.07999 16.1717,18.87209 29.787,30.54456 35.6286,30.54456 3.1066,0 3.529,-0.99866 3.529,-8.34423 0,-14.92585 -10.7483,-44.982 -28.8038,-80.54629 -4.5874,-9.035879 -8.3212,-17.656129 -8.3212,-19.211049 0,-3.16667 2.9399,-6.41555 6.6474,-7.34609 5.2009,-1.30532 7.3265,1.10577 15.8229,17.94766 14.4022,28.548529 21.4895,45.199359 26.5043,62.268369 7.1544,24.3519 6.3863,38.31749 -2.5385,46.15361 -6.457,5.6693 -12.4124,6.50981 -22.0713,3.11498 -7.9331,-2.78828 -15.0826,-8.39475 -29.179,-22.88165 -8.7591,-9.00171 -11.9803,-11.78921 -11.1577,-9.65531 3.2016,8.30476 12.5334,32.7711 14.6362,38.37331 1.3157,3.50533 2.1193,7.23305 1.7858,8.28383 -1.6414,5.17175 -8.6153,7.51672 -13.0717,4.39536 z"
         id="path1430" />
      <path
         style="fill:#000000;stroke-width:9.79571"
         d="m 1363.4204,231.55768 c -10.7764,-2.68485 -21.0539,-6.90719 -42,-17.25501 -17.3475,-8.57002 -20.4418,-12.3196 -15.4274,-18.69434 1.5968,-2.03008 2.9549,-2.63486 5.9166,-2.63486 2.1143,0 3.9941,0.3579 4.1775,0.79533 0.1833,0.43744 3.9333,2.55597 8.3333,4.70785 4.4,2.15188 8.3506,4.08586 8.7792,4.29773 1.1382,0.56269 31.7208,-64.22829 31.7208,-67.20227 0,-0.27986 1.3156,-3.34154 2.9237,-6.80374 4.5441,-9.78393 7.0776,-15.94426 7.0622,-17.17202 -0.01,-0.61758 -5.5203,-3.13328 -12.25,-5.59043 -12.9681,-4.7349 -16.7359,-7.331229 -16.7359,-11.532449 0,-3.35077 4.1677,-7.5 7.5334,-7.5 6.5674,0 62.2423,23.756599 67.2166,28.681449 2.7131,2.68611 2.9392,7.28254 0.5,10.16512 -3.3567,3.96689 -5.9897,3.62674 -18.1594,-2.34596 -6.2686,-3.07653 -11.7487,-5.23525 -12.1779,-4.79715 -0.4292,0.4381 -3.0882,6.19654 -5.9088,12.79654 -2.8206,6.6 -6.2254,14.33417 -7.5661,17.18705 -1.3408,2.85288 -2.4378,5.40898 -2.4378,5.68023 0,0.27125 -1.2924,3.33708 -2.8721,6.81295 -1.5796,3.47587 -5.0106,11.04477 -7.6244,16.81977 -2.6138,5.775 -6.9463,14.87932 -9.6279,20.23183 -2.6816,5.35251 -4.8756,10.34378 -4.8756,11.09171 0,0.74794 1.9125,1.92759 4.25,2.62145 2.3375,0.69386 4.7,1.60615 5.25,2.02733 0.55,0.42117 3.475,1.33301 6.5,2.0263 7.2273,1.65642 10.722,3.76653 11.3071,6.82734 0.7014,3.66945 -1.0567,7.73892 -3.9039,9.0362 -2.9614,1.34928 -3.4239,1.3363 -9.9032,-0.27795 z"
         id="path1428" />
      <path
         style="fill:#000000;stroke-width:9.79571"
         d="m 1444.4204,274.51552 c -1.65,-0.77682 -7.95,-3.59819 -14,-6.2697 -25.0306,-11.05284 -37.5,-21.24068 -37.5,-30.63853 0,-6.41354 6.1243,-19.84584 16.9308,-37.13382 3.0319,-4.85041 3.6656,-6.70752 3.3071,-9.69273 -0.3574,-2.97696 0.052,-4.18842 2.1139,-6.25 1.4065,-1.4065 3.6888,-2.55727 5.0719,-2.55727 2.1081,0 3.7544,-1.89908 10.1861,-11.75 4.2193,-6.4625 9.8661,-15.56986 12.5484,-20.23858 6.3189,-10.99864 8.5065,-13.01142 14.1416,-13.01142 9.5714,0 20.5794,5.42729 50.9044,25.09733 4.9278,3.19642 7.1256,7.65816 5.7359,11.64464 -1.0382,2.97812 -4.4343,5.25803 -7.8323,5.25803 -0.989,0 -7.4432,-3.80589 -14.3427,-8.45754 -10.8787,-7.33444 -25.0394,-15.30648 -29.7366,-16.74079 -0.9958,-0.30409 -3.112,2.32208 -6.5467,8.1245 -2.7913,4.71561 -7.9015,12.77093 -11.356,17.90071 -3.4544,5.12978 -6.0494,9.92991 -5.7665,10.66694 0.2828,0.73704 9.7339,5.94903 21.0024,11.5822 20.8998,10.44787 21.5894,10.97728 21.6246,16.6014 0.016,2.59883 -4.3707,6.32258 -7.4488,6.32258 -3.4824,0 -13.8689,-4.57968 -29.7194,-13.10408 -8.075,-4.34276 -15.0664,-7.89592 -15.5364,-7.89592 -0.8956,0 -10.6396,15.61944 -14.0363,22.5 -1.0861,2.2 -2.5283,5.71099 -3.2049,7.80221 -1.1728,3.62533 -1.0977,3.91824 1.6147,6.29662 4.1619,3.64934 17.1007,10.4867 31.2227,16.4993 11.0553,4.7069 12.5266,5.62579 13.7689,8.59907 1.2012,2.87468 1.1887,3.72014 -0.091,6.19473 -2.2718,4.39313 -7.2202,5.39757 -13.0559,2.65012 z"
         id="path1422" />
      <path
         style="fill:#000000;stroke-width:9.79571"
         d="m 444.7167,351.91933 c -2.2661,-1.32133 -13.0322,-15.15442 -45.6479,-58.65223 -23.363,-31.15795 -27.1484,-36.69036 -27.1484,-39.67742 0,-2.55876 0.6925,-4.01578 2.6348,-5.54363 5.0992,-4.01098 7.7273,-2.96449 21.3652,8.50723 6.875,5.78302 16.775,13.75585 22,17.71739 5.225,3.96154 9.725,7.4278 10,7.7028 1.4116,1.41164 13.6802,9.4193 22.5,14.68563 12.3561,7.37791 22.1014,11.31437 28.0105,11.31437 h 4.4895 v -3.81309 c 0,-7.31643 -12.091,-27.73504 -28.5176,-48.15896 -7.674,-9.54141 -12.7504,-15.19565 -28.1109,-31.31084 -7.0618,-7.40884 -8.3715,-9.30398 -8.3715,-12.11364 0,-4.47412 4.0845,-8.60347 8.51,-8.60347 2.7792,0 4.4937,1.3128 12.1137,9.27565 15.5087,16.20648 36.6842,40.94303 41.8763,48.91851 0.55,0.84485 2.7541,4.18428 4.898,7.42096 10.2072,15.40986 14.0674,25.73502 13.4203,35.89681 -0.7737,12.1501 -7.9104,18.42311 -21.0087,18.46611 -11.3868,0.0374 -26.0782,-6.24421 -48.8096,-20.86955 l -2.5,-1.60849 1.9231,3 c 2.0341,3.17318 19.5412,26.64811 20.5089,27.5 0.3124,0.275 2.0305,2.38611 3.818,4.69136 4.7572,6.13513 4.4253,12.13237 -0.8216,14.84563 -3.2834,1.69795 -4.7746,1.78344 -7.1321,0.40887 z"
         id="path1420" />
      <path
         style="fill:#000000;stroke-width:9.79571"
         d="m 1552.6528,358.89638 c -5.589,-2.95016 -9.3487,-8.78792 -10.7589,-16.70566 -1.0077,-5.65792 -0.9331,-8.13658 0.473,-15.71725 1.7946,-9.6752 5.394,-22.13068 8.5785,-29.68538 1.0862,-2.57696 1.975,-5.27236 1.975,-5.98978 0,-1.48766 -1.0953,-0.34018 -13.5173,14.16191 -19.6703,22.96388 -18.6901,22.01325 -22.6975,22.01325 -4.5505,0 -8.791,-4.00959 -8.7678,-8.29047 0.013,-2.4616 1.3533,-4.74155 5.75,-9.78378 3.1529,-3.61584 9.3326,-10.75893 13.7326,-15.87354 4.4,-5.11461 8.4619,-9.8062 9.0264,-10.42575 1.653,-1.81396 27.4784,-30.98626 43.9331,-49.62646 3.1558,-3.575 6.4055,-6.88062 7.2216,-7.34583 2.3349,-1.331 8.1083,0.20714 9.7902,2.60826 2.6931,3.84497 1.7167,7.76646 -5.0387,20.23757 -24.0638,44.42416 -38.0494,82.69493 -34.227,93.66 0.9524,2.73213 1.3719,2.97453 4.1766,2.41381 9.2312,-1.84551 29.6797,-21.20279 48.143,-45.57381 2.7084,-3.575 5.2798,-6.95 5.7144,-7.5 2.8326,-3.58535 8.2734,-11.27499 13.5277,-19.11915 3.3596,-5.01553 6.8481,-9.40303 7.7523,-9.75 3.1799,-1.22024 6.3966,-0.607 9.1246,1.73956 4.2938,3.69332 3.7588,7.74066 -2.1346,16.15082 -2.6897,3.83832 -6.1112,8.77877 -7.6034,10.97877 -3.9172,5.77546 -18.6647,25.30199 -23.8726,31.60872 -8.2736,10.01926 -27.4998,28.36979 -33.2689,31.75358 -11.1101,6.51648 -19.8831,7.8343 -27.0323,4.06061 z"
         id="path1418" />
      <path
         style="fill:#000000;stroke-width:9.79571"
         d="m 363.431,406.46535 c -12.785,-4.51073 -27.0135,-16.02453 -38.0898,-30.82267 -2.7065,-3.61582 -5.6727,-8.0581 -6.5917,-9.87172 -9.9775,-19.69132 -11.3257,-24.55288 -11.3276,-40.84667 0,-13.44293 0.025,-13.602 3.4157,-20.28473 6.0559,-11.93653 14.7054,-17.05555 19.6278,-11.61635 3.0487,3.3688 2.3306,7.79758 -2.2396,13.81219 -2.7391,3.60472 -4.4249,7.1077 -5.1441,10.689 -4.4101,21.95919 18.2192,60.36131 42.4436,72.02744 11.1883,5.38811 19.1043,4.52291 26.5185,-2.89838 7.4589,-7.466 9.9187,-17.431 7.3869,-29.92584 -3.5229,-17.38621 -15.9619,-35.20948 -30.7638,-44.08011 -7.7213,-4.62726 -13.4989,-5.45641 -19.1063,-2.74192 -5.3407,2.58537 -6.7135,2.58472 -10.0054,-0.005 -2.0461,-1.60918 -2.6348,-2.94842 -2.6348,-5.99343 0,-3.44932 0.4998,-4.28324 4.1541,-6.93037 13.8022,-9.99831 33.968,-4.43882 52.2561,14.40641 16.7732,17.28435 25.7513,41.42207 22.6332,60.84977 -1.2421,7.73909 -2.9896,11.97311 -8.1477,19.7405 -10.0403,15.11953 -26.9539,20.64185 -44.3851,14.49188 z"
         id="path1416" />
      <path
         style="fill:#000000;stroke-width:9.79571"
         d="m 1627.0494,430.8835 c -8.1202,-5.6229 -23.547,-20.95011 -36.1435,-35.91003 -3.0102,-3.575 -5.7852,-6.73416 -6.1667,-7.02035 -1.4539,-1.09065 -2.7969,-6.2186 -2.2252,-8.49641 0.7197,-2.86786 4.4312,-5.48324 7.7811,-5.48324 2.4145,0 4.0764,1.50035 14.8625,13.41795 l 4.4511,4.91794 9.9058,-8.87781 c 15.2785,-13.69284 19.2287,-17.43836 41.8401,-39.67178 l 21.0658,-20.7137 -10.25,-9.64064 c -9.873,-9.28609 -10.25,-9.7966 -10.25,-13.88131 0,-8.45561 6.6729,-10.1048 14.6602,-3.62321 10.4762,8.50134 40.1056,39.04873 45.6312,47.04507 3.6591,5.29516 0.3208,12.02749 -5.964,12.02749 -3.7787,0 -4.2906,-0.42093 -15.5979,-12.82712 -3.1717,-3.47992 -6.1885,-6.17992 -6.7039,-6 -0.5154,0.17991 -8.284,7.52712 -17.2634,16.32712 -8.9794,8.8 -20.3868,19.825 -25.3498,24.5 -8.3847,7.89826 -11.1985,10.501 -25.095,23.21271 l -5.152,4.71271 6.4572,6.04036 c 3.5514,3.3222 7.6767,6.82029 9.1673,7.77354 3.9489,2.5254 5.1426,4.36299 5.1783,7.97172 0.04,4.0727 -3.2537,7.30023 -7.4068,7.25734 -1.7362,-0.0179 -4.9535,-1.34179 -7.4324,-3.05835 z"
         id="path1414" />
      <path
         style="fill:#000000;stroke-width:9.79571"
         d="m 313.9204,488.68409 c -3.607,-1.83111 -5.2903,-5.817 -3.9478,-9.34798 0.5901,-1.55207 1.3908,-3.05609 1.7795,-3.34229 0.3886,-0.28619 3.5419,-3.74456 7.0074,-7.68526 l 6.3008,-7.16491 -4.7267,-4.33509 c -2.5997,-2.3843 -5.2187,-4.81073 -5.82,-5.39208 -1.3305,-1.28642 -24.5441,-20.63438 -30.3354,-25.28382 -2.2887,-1.83745 -5.0448,-4.08745 -6.1247,-5 -1.08,-0.91255 -5.1937,-4.13419 -9.1417,-7.15919 -3.9479,-3.025 -8.5986,-6.75212 -10.3348,-8.2825 -1.7361,-1.53037 -4.3941,-3.53989 -5.9066,-4.4656 -1.5125,-0.92571 -2.75,-2.03609 -2.75,-2.46751 0,-0.43141 -0.7875,-0.77571 -1.75,-0.76511 -1.0737,0.0118 -4.6372,4.1017 -9.2211,10.58312 -7.9797,11.28309 -9.2286,12.3976 -13.8918,12.3976 -5.5528,0 -8.3246,-5.27885 -5.8325,-11.10797 3.7368,-8.74029 40.5138,-54.11209 45.353,-55.95194 5.2166,-1.98338 10.3424,1.61335 10.3424,7.25724 0,2.01825 -2.2618,5.35946 -8.4802,12.5275 l -8.4802,9.77517 2.7716,2.5 c 1.5243,1.375 4.5529,3.9104 6.7301,5.63421 32.1123,25.42473 44.3796,35.52417 60.4587,49.77472 l 7.5,6.64709 3.0004,-3.4059 c 1.6502,-1.87325 5.0252,-6.8523 7.5,-11.06456 3.1527,-5.36623 5.2479,-7.85811 6.9996,-8.325 4.9856,-1.32887 8.4824,0.24803 10.1239,4.56535 1.7164,4.51441 -4.0031,14.36419 -19.2631,33.17409 -11.7342,14.46393 -22.331,26 -23.883,26 -0.4479,0 -1.4136,0.22045 -2.146,0.48989 -0.7325,0.26944 -2.4568,-0.0812 -3.8318,-0.77927 z"
         id="path1412" />
      <path
         style="fill:#000000;stroke-width:9.79571"
         d="m 1688.5664,511.52122 c -3.5418,-3.2825 -3.3859,-6.56935 0.7151,-15.07596 3.899,-8.08734 10.3551,-16.88504 17.564,-23.9342 2.7912,-2.72932 5.0749,-5.33728 5.0749,-5.79545 0,-0.45818 -1.0125,-1.86886 -2.25,-3.13485 -4.1022,-4.19668 -9.2296,-10.01049 -16.1897,-18.35729 -3.7836,-4.5375 -7.2217,-8.25 -7.6401,-8.25 -0.4184,0 -4.2841,2.40673 -8.5905,5.3483 -12.7252,8.69229 -21.9589,13.77492 -25.1921,13.86685 -4.3658,0.12413 -7.9288,-2.58522 -8.6824,-6.60229 -0.9216,-4.91275 0.6143,-6.9159 8.7761,-11.44564 3.9978,-2.21872 10.8528,-6.43897 15.2334,-9.37832 6.6643,-4.47173 8.0782,-5.89942 8.66,-8.74446 0.9138,-4.46796 4.4392,-7.24268 8.4678,-6.66485 2.5654,0.36795 4.2196,-0.45457 9.7044,-4.82555 7.964,-6.34664 27.0222,-22.9085 31.7074,-27.55404 10.1083,-10.023 14.0551,-13 17.2348,-13 4.6745,0 7.7609,3.39019 7.7609,8.52477 0,3.52927 -0.6822,4.55111 -7.25,10.85923 -9.5614,9.18338 -32.0094,29.07685 -38.4968,34.116 -2.8323,2.2 -5.3539,4.48462 -5.6036,5.07694 -0.4887,1.1593 9.1314,13.04274 18.7524,23.16419 l 5.9325,6.24112 3.5827,-2.68826 c 1.9706,-1.47855 3.8078,-2.93832 4.0828,-3.24394 0.275,-0.30562 2.525,-1.89768 5,-3.53792 2.475,-1.64023 6.75,-4.63397 9.5,-6.65276 5.7174,-4.19716 21.014,-13.59914 30.3108,-18.63039 6.9301,-3.75042 9.6883,-3.75636 13.1615,-0.0283 1.2663,1.35922 2.0277,3.54215 2.0277,5.81358 0,4.13785 -2.1326,6.5725 -8.5976,9.81547 -10.2305,5.1318 -46.4519,29.39935 -46.3746,31.06998 0.015,0.33016 1.3181,1.86567 2.8952,3.41223 1.5772,1.54656 3.0972,4.01348 3.3779,5.48204 0.6347,3.3198 -1.6092,7.85173 -4.3124,8.70968 -2.9623,0.94019 -7.5052,-0.31218 -9.6236,-2.65295 -3.9723,-4.38933 -4.9756,-4.25796 -10.4971,1.37448 -6.9274,7.06654 -11.9528,13.9274 -15.9495,21.77482 -1.8208,3.575 -3.7848,6.83061 -4.3644,7.23469 -2.2718,1.58369 -7.3032,0.72703 -9.9079,-1.68694 z"
         id="path1410" />
      <path
         style="fill:#000000;stroke-width:9.79571"
         d="m 275.3135,532.79992 c -8.6913,-6.52313 -29.1482,-20.20358 -45.3931,-30.35645 -18.5921,-11.61976 -38.2618,-23.47 -38.9569,-23.47 -0.3365,0 -1.4153,1.36007 -2.3973,3.02238 -2.7421,4.6421 -16.7865,23.32284 -18.5665,24.69582 -2.6301,2.02868 -7.5067,1.52027 -9.905,-1.03265 -3.6931,-3.93108 -2.8507,-7.39854 3.9432,-16.23176 6.7974,-8.83787 19.1318,-27.24999 23.4157,-34.95379 1.5292,-2.75 4.7771,-8.72282 7.2176,-13.27293 5.1813,-9.6603 8.5116,-12.18943 13.3901,-10.1687 4.7857,1.9823 6.219,6.81918 3.5386,11.94163 -4.2745,8.16886 -10.1019,18.6809 -10.9621,19.77417 -1.205,1.53162 -1.9464,0.89122 7.7826,6.72228 13.6039,8.15354 52.7291,32.69 58,36.37337 26.7789,18.71354 26.5,18.46437 26.5,23.67525 0,3.21496 -0.5811,4.91834 -2.1886,6.41597 -3.714,3.46011 -7.7157,2.64655 -15.4183,-3.13459 z"
         id="path1408" />
      <path
         style="fill:#000000;stroke-width:9.79571"
         d="m 1754.1677,583.92738 c -17.1942,-3.07122 -30.1503,-12.24345 -36.6608,-25.95391 -2.7774,-5.84912 -3.0865,-7.4534 -3.0865,-16.02103 0,-8.79708 0.2572,-10.04339 3.3821,-16.391 8.7001,-17.67237 32.4944,-33.56733 59.4393,-39.70624 23.445,-5.34154 45.5089,-1.29676 57.2878,10.50211 10.0749,10.09196 9.9485,20.61616 -0.2477,20.61616 -2.5718,0 -3.8369,-0.82732 -6.4991,-4.25 -7.3683,-9.47311 -12.3642,-11.88914 -25.8624,-12.5071 -33.0893,-1.51487 -72.7605,21.98923 -72.3091,42.84122 0.187,8.64061 7.2749,17.78037 17.1394,22.10122 7.3509,3.21979 20.6377,3.59903 31.1968,0.89043 15.6734,-4.02048 29.6615,-12.44286 36.1227,-21.74992 3.1366,-4.51819 3.3502,-5.34946 3.3502,-13.03895 0,-5.98005 0.4078,-8.61307 1.5,-9.68419 4.4735,-4.38728 11.7616,-1.67945 13.8011,5.12763 6.5316,21.80059 -15.1785,46.14095 -49.3011,55.27422 -9.2343,2.47167 -21.6839,3.30128 -29.2527,1.94935 z"
         id="path1406" />
      <path
         style="fill:#000000;stroke-width:9.79571"
         d="m 1788.4458,693.72347 c -1.9168,-1.66773 -2.7388,-3.56832 -3.1766,-7.34422 -0.7664,-6.61208 1.3493,-11.19093 8.3893,-18.15578 l 5.3067,-5.25 -4.7724,-0.0119 c -17.3566,-0.0432 -30.4231,-11.5496 -28.9812,-25.5209 1.37,-13.27359 12.9795,-26.22 38.2088,-42.6086 17.891,-11.62172 60.5653,-32.8586 66.0275,-32.8586 3.4276,0 6.4663,3.08133 7.1306,7.23063 0.8079,5.04604 -1.2957,7.98767 -7.3201,10.23609 -7.3517,2.74382 -38.7995,18.51053 -47.838,23.98415 -19.6714,11.91277 -31.1437,20.80883 -36.5236,28.32177 -5.575,7.78541 -5.2766,11.42048 1.0873,13.24563 4.5146,1.29478 16.2867,1.24769 25.2447,-0.10099 14.9316,-2.24801 42.0358,-9.94684 58.6916,-16.67112 15.7538,-6.36009 21.0977,-8.24616 23.3645,-8.24616 3.6569,0 7.6355,4.30454 7.6355,8.26112 0,6.03814 -1.1864,6.79552 -24.5,15.64102 -16.6908,6.33271 -23.3327,9.2233 -39.5952,17.23226 -26.4366,13.01944 -35.9048,20.10804 -35.9048,26.88112 0,7.02777 -7.1895,10.33273 -12.4746,5.73448 z"
         id="path1400" />
      <path
         style="fill:#000000;stroke-width:9.79571"
         d="m 183.9593,726.78491 c -2.9593,-3.17647 -2.5476,-6.49361 2.1418,-17.25547 2.87,-6.58658 3.8576,-9.91765 3.15,-10.62519 -2.3431,-2.3431 -87.9232,-35.93078 -91.550202,-35.93078 -0.7937,0 -2.9872,5.2477 -5.6032,13.40453 -3.9151,12.2077 -4.5765,13.539 -7.4084,14.91051 -5.152996,2.49569 -10.668096,-0.7916 -10.737096,-6.39989 -0.073,-5.92594 16.180396,-50.88765 23.175196,-64.10982 3.591502,-6.78893 7.220502,-8.36394 11.662802,-5.06177 4.1896,3.1143 3.9127,7.20247 -1.3362,19.7309 -4.4491,10.61928 -4.6223,12.44822 -1.1848,12.51023 0.4669,0.008 2.2669,0.63251 4,1.38686 1.7332,0.75436 13.7262,5.31028 26.6512,10.12428 12.925,4.81399 25.3,9.54806 27.5,10.52015 2.2,0.97208 9.0888,3.84324 15.3086,6.38034 6.2197,2.53711 12.6154,5.28873 14.2127,6.11472 l 2.9042,1.50179 3.0372,-9.71666 c 1.6705,-5.34416 3.0373,-10.68636 3.0373,-11.87155 0,-1.1852 0.9326,-3.34059 2.0725,-4.78976 1.5847,-2.01458 2.9607,-2.63486 5.8451,-2.63486 9.2022,0 9.3437,8.83476 0.5522,34.48462 -4.0811,11.90693 -14.4273,34.57247 -17.2388,37.76538 -2.199,2.49725 -7.6765,2.26156 -10.1921,-0.43856 z"
         id="path1398" />
      <path
         style="fill:#000000;stroke-width:9.79571"
         d="m 1819.8022,774.15042 c -2.9654,-1.49093 -4.0336,-3.34089 -9.6296,-16.67695 -9.7062,-23.13132 -11.7159,-29.75415 -11.7354,-38.67309 -0.026,-11.93946 2.1669,-13.9743 24.4832,-22.71698 20.3946,-7.98985 70.4993,-24.85243 85.0444,-28.62144 8.2048,-2.12608 11.4343,-0.96053 13.1433,4.7436 1.7378,5.80021 -0.1286,8.61568 -7.1877,10.84275 -55.7579,17.59104 -98.5837,32.82458 -100.3602,35.69904 -1.1786,1.90687 2.9507,13.92524 13.2476,38.55768 4.2571,10.18406 4.4964,13.18215 1.2727,15.94284 -2.8318,2.42496 -4.8193,2.64165 -8.2783,0.90255 z"
         id="path1396" />
      <path
         style="fill:#000000;stroke-width:9.79571"
         d="m 124.9204,819.64134 c -20.8875,-6.48581 -35.306202,-14.91611 -48.999998,-28.64924 -11.3783,-11.41087 -15.8682,-18.08617 -19.6159,-29.16334 -6.7826,-20.04768 1.9075,-36.68818 20.1424,-38.57018 4.5408,-0.46865 5.5279,-0.24645 7.122396,1.6033 2.3955,2.77888 3.2303,7.00162 1.9645,9.93659 -1.1013,2.55327 -5.398296,5.175 -8.481996,5.175 -3.3172,0 -5.1407,1.1172 -6.6791,4.09225 -2.7517,5.32121 1.0804,16.52248 9.0391,26.42149 11.773696,14.64398 27.356998,25.28621 46.508598,31.76174 16.362,5.53234 27.5943,4.31685 32.7999,-3.54942 2.3434,-3.54106 2.6974,-5.08034 2.6798,-11.65303 -0.013,-4.65865 -0.7307,-9.68963 -1.8662,-13.07303 -2.3705,-7.06284 -8.5755,-19.6309 -12.5291,-25.37729 -4.1651,-6.05381 -4.1676,-10.5335 -0.01,-14.03382 3.9339,-3.31014 6.3988,-3.26969 9.8169,0.16111 6.0953,6.11799 15.9135,26.02509 18.6897,37.89483 2.3999,10.26044 1.615,24.15938 -1.7798,31.51718 -3.0189,6.54314 -8.2267,11.84658 -14.7361,15.00674 -7.0326,3.41417 -23.8844,3.66107 -34.0674,0.49912 z"
         id="path1394" />
      <path
         style="fill:#000000;stroke-width:9.79571"
         d="M 96.420398,923.51065 C 75.071402,919.59978 54.209102,909.37214 42.345802,897.0009 c -10.1807,-10.6165 -14.4254,-20.32935 -14.4254,-33.00826 0,-6.65769 0.2184,-7.39142 3.04,-10.21308 2.5443,-2.54424 3.5636,-2.93895 6.25,-2.42007 5.2142,1.00711 6.6297,3.62398 6.4427,11.91013 -0.1305,5.78084 0.2889,8.06301 2.1234,11.55326 7.1638,13.63023 26.3568,25.91283 48.836896,31.25323 12.748202,3.02849 29.642202,2.43774 36.807002,-1.28706 5.8726,-3.05309 7.8741,-5.07349 9.9516,-10.04561 2.7729,-6.63636 2.1416,-15.64077 -1.617,-23.06503 -8.717,-17.21848 -38.031,-30.42963 -61.043998,-27.51108 -8.4624,1.07321 -13.1511,3.86052 -16.3353,9.71084 -2.8707,5.27446 -5.6107,6.74712 -9.677,5.20111 -7.3296,-2.78672 -6.5511,-12.75028 1.6565,-21.20044 18.4438,-18.98885 66.784198,-11.8782 90.043898,13.24503 6.9442,7.50059 10.3827,13.38143 12.6908,21.70512 4.3343,15.63083 0.053,32.70186 -10.4434,41.64165 -4.4789,3.81463 -14.1474,8.10962 -21.184,9.41041 -7.6372,1.41182 -20.187,1.25176 -29.042102,-0.3704 z"
         id="path1388" />
      <path
         style="fill:#000000;stroke-width:9.79571"
         d="m 1863.4204,998.82739 c -6.4354,-2.3792 -12.5136,-8.0774 -16.1004,-15.0938 -6.5559,-12.8245 -5.1583,-32.96376 3.1004,-44.67607 3.0161,-4.27736 11.0581,-11.33317 15.4591,-13.56331 7.7489,-3.92668 13.0409,-1.3955 13.0409,6.2375 0,3.55699 -1.255,5.03673 -8.9886,10.59821 -7.911,5.68905 -10.9956,12.1798 -11.0058,23.15836 0,4.19751 0.6254,7.19201 2.0828,9.91131 3.1614,5.8985 5.6252,7.5023 11.5839,7.5406 4.3273,0.028 5.8711,-0.4998 9.4504,-3.2298 2.353,-1.7947 6.2271,-5.7322 8.6091,-8.75 5.4602,-6.91753 5.0035,-6.28972 10.1745,-13.98692 11.2605,-16.76145 18.3981,-23.83131 29.0937,-28.81742 7.8959,-3.68093 19.2334,-3.69988 27,-0.0451 6.5839,3.09824 12.0461,8.39382 15.1822,14.71925 1.9627,3.95882 2.3016,6.19115 2.2987,15.14331 0,9.12644 -0.3432,11.26898 -2.6015,16.37858 -3.0622,6.9286 -9.2044,14.3729 -15.3442,18.5972 -5.1825,3.5657 -7.3379,3.7538 -10.9003,0.9516 -2.1002,-1.652 -2.6349,-2.9259 -2.6349,-6.2775 0,-3.8873 0.4546,-4.6052 6.0177,-9.502 7.75,-6.8218 10.384,-11.78955 10.4176,-19.64788 0.043,-10.09285 -6.036,-16.52603 -15.5715,-16.47804 -9.9768,0.0502 -17.0353,5.98339 -30.9054,25.97804 -16.7896,24.20338 -25.2434,30.98198 -39.4584,31.63938 -3.85,0.178 -8.35,-0.1754 -10,-0.7855 z"
         id="path1386" />
      <path
         style="fill:#000000;stroke-width:9.79571"
         d="m 115.121,1013.9458 c -5.2574,-4.898 -3.6261,-10.8711 4.0877,-14.96731 6.9254,-3.6777 11.5251,-8.3558 14.4088,-14.6547 2.1747,-4.7501 2.4809,-6.5688 2.0569,-12.2157 -1.0453,-13.92216 -9.1734,-19.49866 -20.4582,-14.03579 -5.0858,2.46202 -10.4104,7.60395 -20.942602,20.22419 -11.662196,13.9744 -19.818596,21.3447 -27.948596,25.25511 -6.1809,2.9729 -8.1131,3.4219 -14.7246,3.4219 -9.4885,0 -15.7624,-2.057 -21.8827,-7.17471 -7.2113,-6.03 -10.1583,-13.0462 -10.2171,-24.3253 -0.067,-12.90982 4.1028,-22.43077 13.6165,-31.08773 8.5817,-7.80891 15.4063,-9.79876 19.1114,-5.57235 3.8795,4.42533 2.1147,11.91383 -3.3402,14.17333 -4.1339,1.71231 -11.4572,9.91095 -12.9898,14.54242 -4.2752,12.91943 2.3119,22.95613 15.0138,22.87643 9.48,-0.059 15.7519,-4.4934 29.414,-20.7943 20.168198,-24.06362 28.604598,-30.00239 42.594098,-29.98396 11.7209,0.0154 19.1962,4.93863 24.7887,16.32555 2.5093,5.10943 2.7113,6.45156 2.7113,18.02061 0,12.2648 -0.065,12.6299 -3.4635,19.4048 -4.2267,8.42631 -11.2517,15.54721 -19.3109,19.57441 -7.1044,3.5502 -9.5704,3.7457 -12.525,0.9931 z"
         id="path1384" />
      <path
         style="fill:#000000;stroke-width:9.79571"
         d="m 120.9204,1103.274 c -4.1264,-1.4896 -6.2777,-8.0447 -4.0229,-12.2579 0.5375,-1.0043 2.9747,-2.9965 5.4161,-4.4273 11.7728,-6.8993 17.2685,-22.045 12.2883,-33.8661 -3.8423,-9.1204 -12.03,-11.4587 -20.7358,-5.9218 -5.1814,3.2954 -8.7077,7.4654 -19.533402,23.0985 -4.3518,6.2843 -10.0365,13.7579 -12.632796,16.6079 -15.8096,17.3549 -36.525,20.3587 -51.0601,7.4038 -9.8622,-8.7901 -13.1661,-22.524 -8.8425,-36.7583 3.0128,-9.9192 12.9108,-22.1411 20.5103,-25.3258 3.6009,-1.509 7.4411,0.3218 9.4527,4.5065 1.7829,3.7089 0.7977,7.0735 -3.046,10.4018 -10.2063,8.8382 -13.1837,13.8437 -13.2301,22.2425 -0.055,9.9359 5.9569,15.9956 15.8694,15.9956 10.2105,0 16.5914,-5.38 30.8126,-25.9793 10.973896,-15.8958 19.310098,-24.7257 27.159698,-28.7684 7.1141,-3.6639 18.9894,-3.8584 25.5366,-0.4182 11.7258,6.1613 18.139,20.5082 16.7485,37.4682 -1.2451,15.1877 -9.1667,27.1481 -23.1187,34.9058 -3.1722,1.7638 -4.9869,2.0257 -7.5719,1.0925 z"
         id="path1382" />
      <path
         style="fill:#000000;stroke-width:9.79571"
         d="m 1833.9189,1193.2444 c -2.0209,-2.5692 -2.1078,-3.4332 -1.4835,-14.75 0.9826,-17.8119 3.8729,-37.242 6.4193,-43.1534 1.216,-2.8229 3.5572,-6.4229 5.2027,-8 2.7678,-2.6529 3.6718,-2.8942 12.0743,-3.2226 14.0776,-0.5502 42.479,3.2099 95.2887,12.6155 11.9614,2.1303 15.4558,3.125 17.25,4.91 2.4599,2.4474 2.865,5.8856 1.1397,9.6722 -1.9898,4.3673 -4.7335,4.7989 -16.6178,2.6145 -31.9263,-5.8683 -72.2586,-11.765 -92.3968,-13.5086 l -7.6249,-0.6601 -1.0873,4.8557 c -1.7582,7.8518 -3.1335,18.9419 -4.1206,33.2283 -0.811,11.7385 -1.1968,13.6631 -3.1574,15.75 -3.1721,3.3766 -8.0785,3.2181 -10.8864,-0.3515 z"
         id="path1376" />
    </g>
  </g>
</svg>
